<?xml version="1.0" standalone="no"?>
<!DOCTYPE svg PUBLIC "-//W3C//DTD SVG 20010904//EN"
 "http://www.w3.org/TR/2001/REC-SVG-20010904/DTD/svg10.dtd">
<svg version="1.0" xmlns="http://www.w3.org/2000/svg"
 width="720.000000pt" height="482.000000pt" viewBox="0 0 720.000000 482.000000"
 preserveAspectRatio="xMidYMid meet">

<g transform="translate(0.000000,482.000000) scale(0.100000,-0.100000)"
fill="#000000" stroke="none">
<path d="M3365 4455 c-161 -24 -218 -35 -327 -66 -731 -205 -1304 -824 -1452
-1569 -64 -323 -63 -528 5 -855 126 -609 569 -1164 1138 -1427 335 -155 762
-230 1078 -188 611 82 1077 343 1435 805 426 548 540 1313 294 1970 -221 589
-698 1047 -1295 1241 -283 93 -618 126 -876 89z m1316 -910 c56 -19 116 -76
142 -135 58 -129 -10 -289 -142 -336 -28 -10 -257 -13 -1082 -14 l-1045 0 -52
26 c-196 98 -181 386 24 459 32 12 220 14 1075 15 904 0 1041 -2 1080 -15z
m-6 -912 c188 -101 186 -362 -3 -455 l-47 -23 -1050 0 -1050 0 -52 27 c-52 28
-86 65 -117 125 -20 40 -21 151 -2 197 29 69 99 129 171 147 17 4 498 6 1070
6 l1040 -2 40 -22z m35 -909 c86 -47 133 -127 132 -224 -1 -100 -56 -184 -147
-226 l-50 -24 -1041 0 -1041 0 -61 31 c-68 34 -112 85 -131 154 -15 54 -14 82
4 143 27 89 104 158 192 170 25 4 506 6 1069 6 l1022 -2 52 -28z"/>
</g>
</svg>
